<svg width="47" height="20" viewBox="0 0 47 20" fill="none" xmlns="http://www.w3.org/2000/svg">
<path d="M3.18 11.8203H7.78V14.0403H0.38V0.0803287H3.18V11.8203ZM14.4797 14.2203C13.413 14.2203 12.453 13.987 11.5997 13.5203C10.7464 13.0403 10.073 12.367 9.57969 11.5003C9.09969 10.6337 8.85969 9.63366 8.85969 8.50033C8.85969 7.367 9.10635 6.367 9.59969 5.50033C10.1064 4.63366 10.793 3.967 11.6597 3.50033C12.5264 3.02033 13.493 2.78033 14.5597 2.78033C15.6264 2.78033 16.593 3.02033 17.4597 3.50033C18.3264 3.967 19.0064 4.63366 19.4997 5.50033C20.0064 6.367 20.2597 7.367 20.2597 8.50033C20.2597 9.63366 19.9997 10.6337 19.4797 11.5003C18.973 12.367 18.2797 13.0403 17.3997 13.5203C16.533 13.987 15.5597 14.2203 14.4797 14.2203ZM14.4797 11.7803C14.9864 11.7803 15.4597 11.6603 15.8997 11.4203C16.353 11.167 16.713 10.7937 16.9797 10.3003C17.2464 9.807 17.3797 9.207 17.3797 8.50033C17.3797 7.447 17.0997 6.64033 16.5397 6.08033C15.993 5.507 15.3197 5.22033 14.5197 5.22033C13.7197 5.22033 13.0464 5.507 12.4997 6.08033C11.9664 6.64033 11.6997 7.447 11.6997 8.50033C11.6997 9.55366 11.9597 10.367 12.4797 10.9403C13.013 11.5003 13.6797 11.7803 14.4797 11.7803ZM26.6536 2.78033C27.4803 2.78033 28.2069 2.947 28.8336 3.28033C29.4603 3.60033 29.9536 4.02033 30.3136 4.54033V2.96033H33.1336V14.1203C33.1336 15.147 32.9269 16.0603 32.5136 16.8603C32.1003 17.6737 31.4803 18.3137 30.6536 18.7803C29.8269 19.2603 28.8269 19.5003 27.6536 19.5003C26.0803 19.5003 24.7869 19.1337 23.7736 18.4003C22.7736 17.667 22.2069 16.667 22.0736 15.4003H24.8536C25.0003 15.907 25.3136 16.307 25.7936 16.6003C26.2869 16.907 26.8803 17.0603 27.5736 17.0603C28.3869 17.0603 29.0469 16.8137 29.5536 16.3203C30.0603 15.8403 30.3136 15.107 30.3136 14.1203V12.4003C29.9536 12.9203 29.4536 13.3537 28.8136 13.7003C28.1869 14.047 27.4669 14.2203 26.6536 14.2203C25.7203 14.2203 24.8669 13.9803 24.0936 13.5003C23.3203 13.0203 22.7069 12.347 22.2536 11.4803C21.8136 10.6003 21.5936 9.59366 21.5936 8.46033C21.5936 7.34033 21.8136 6.347 22.2536 5.48033C22.7069 4.61366 23.3136 3.947 24.0736 3.48033C24.8469 3.01366 25.7069 2.78033 26.6536 2.78033ZM30.3136 8.50033C30.3136 7.82033 30.1803 7.24033 29.9136 6.76033C29.6469 6.267 29.2869 5.89366 28.8336 5.64033C28.3803 5.37366 27.8936 5.24033 27.3736 5.24033C26.8536 5.24033 26.3736 5.367 25.9336 5.62033C25.4936 5.87366 25.1336 6.247 24.8536 6.74033C24.5869 7.22033 24.4536 7.79366 24.4536 8.46033C24.4536 9.127 24.5869 9.71366 24.8536 10.2203C25.1336 10.7137 25.4936 11.0937 25.9336 11.3603C26.3869 11.627 26.8669 11.7603 27.3736 11.7603C27.8936 11.7603 28.3803 11.6337 28.8336 11.3803C29.2869 11.1137 29.6469 10.7403 29.9136 10.2603C30.1803 9.767 30.3136 9.18033 30.3136 8.50033ZM40.7883 14.2203C39.7216 14.2203 38.7616 13.987 37.9083 13.5203C37.0549 13.0403 36.3816 12.367 35.8883 11.5003C35.4083 10.6337 35.1683 9.63366 35.1683 8.50033C35.1683 7.367 35.4149 6.367 35.9083 5.50033C36.4149 4.63366 37.1016 3.967 37.9683 3.50033C38.8349 3.02033 39.8016 2.78033 40.8683 2.78033C41.9349 2.78033 42.9016 3.02033 43.7683 3.50033C44.6349 3.967 45.3149 4.63366 45.8083 5.50033C46.3149 6.367 46.5683 7.367 46.5683 8.50033C46.5683 9.63366 46.3083 10.6337 45.7883 11.5003C45.2816 12.367 44.5883 13.0403 43.7083 13.5203C42.8416 13.987 41.8683 14.2203 40.7883 14.2203ZM40.7883 11.7803C41.2949 11.7803 41.7683 11.6603 42.2083 11.4203C42.6616 11.167 43.0216 10.7937 43.2883 10.3003C43.5549 9.807 43.6883 9.207 43.6883 8.50033C43.6883 7.447 43.4083 6.64033 42.8483 6.08033C42.3016 5.507 41.6283 5.22033 40.8283 5.22033C40.0283 5.22033 39.3549 5.507 38.8083 6.08033C38.2749 6.64033 38.0083 7.447 38.0083 8.50033C38.0083 9.55366 38.2683 10.367 38.7883 10.9403C39.3216 11.5003 39.9883 11.7803 40.7883 11.7803Z" fill="black"/>
</svg>
