<svg width="22" height="23" viewBox="0 0 22 23" fill="none" xmlns="http://www.w3.org/2000/svg">
<path d="M0.78125 4.1235H21.0938C21.5252 4.1235 21.875 3.71517 21.875 3.21142V0.931216C21.875 0.427462 21.5252 0.0191345 21.0938 0.0191345H0.78125C0.349756 0.0191345 0 0.427462 0 0.931216V3.21142C0 3.71517 0.349756 4.1235 0.78125 4.1235ZM0.78125 13.2443H21.0938C21.5252 13.2443 21.875 12.836 21.875 12.3322V10.052C21.875 9.54828 21.5252 9.13995 21.0938 9.13995H0.78125C0.349756 9.13995 0 9.54828 0 10.052V12.3322C0 12.836 0.349756 13.2443 0.78125 13.2443ZM0.78125 22.3651H21.0938C21.5252 22.3651 21.875 21.9568 21.875 21.453V19.1728C21.875 18.6691 21.5252 18.2608 21.0938 18.2608H0.78125C0.349756 18.2608 0 18.6691 0 19.1728V21.453C0 21.9568 0.349756 22.3651 0.78125 22.3651Z" fill="white"/>
</svg>
