<svg width="20" height="19" viewBox="0 0 20 19" fill="none" xmlns="http://www.w3.org/2000/svg">
<path d="M8.87317 16.0403C10.6481 16.04 12.372 15.4458 13.7702 14.3523L18.1662 18.7483L19.5802 17.3343L15.1842 12.9383C16.2782 11.54 16.8727 9.81577 16.8732 8.04033C16.8732 3.62933 13.2842 0.040329 8.87317 0.040329C4.46217 0.040329 0.873169 3.62933 0.873169 8.04033C0.873169 12.4513 4.46217 16.0403 8.87317 16.0403ZM8.87317 2.04033C12.1822 2.04033 14.8732 4.73133 14.8732 8.04033C14.8732 11.3493 12.1822 14.0403 8.87317 14.0403C5.56417 14.0403 2.87317 11.3493 2.87317 8.04033C2.87317 4.73133 5.56417 2.04033 8.87317 2.04033Z" fill="gray"/>
</svg>
